<?xml version="1.0" encoding="utf-8"?>
<svg viewBox="0 0 50 50" xmlns="http://www.w3.org/2000/svg">
    <g transform="matrix(0.961538, 0, 0, 0.961538, 1.215374, 0.961547)">
        <title>Layer 1</title>
        <g transform="rotate(90 24.73602294921875,25.000000000000004) " id="svg_1">
            <path id="svg_2"
                  d="m36.892308,14.3c1.9,0 3.5,-1.6 3.5,-3.5s-1.6,-3.5 -3.5,-3.5c-1.6,0 -2.9,1.1 -3.4,2.5l-4.2,0l0,2l4.2,0c0.4,1.4 1.8,2.5 3.4,2.5zm0,-5c0.8,0 1.5,0.7 1.5,1.5c0,0.8 -0.7,1.5 -1.5,1.5c-0.8,0 -1.5,-0.7 -1.5,-1.5c0,-0.8 0.6,-1.5 1.5,-1.5z"
                  style="stroke: rgb(52, 152, 219); fill: rgb(255, 255, 255);"/>
            <path id="svg_3"
                  d="m33.492308,41.4c0.4,1.4 1.8,2.5 3.4,2.5c1.9,0 3.5,-1.6 3.5,-3.5s-1.6,-3.5 -3.5,-3.5c-1.6,0 -2.9,1.1 -3.4,2.5l-4.2,0c0,0.5 0,1.2 -0.1,2l4.3,0zm3.4,-2.5c0.8,0 1.5,0.7 1.5,1.5c0,0.8 -0.7,1.5 -1.5,1.5c-0.8,0 -1.5,-0.7 -1.5,-1.5c0,-0.8 0.6,-1.5 1.5,-1.5z"
                  style="stroke: rgb(52, 152, 219); fill: rgb(255, 255, 255);"/>
            <path id="svg_4"
                  d="m45.492308,13c-1.6,0 -2.9,1.1 -3.4,2.5l-2.8,0l-3.9,3.9l-6.1,0l0,2l7,0l3.9,-3.9l2,0c0.4,1.4 1.8,2.5 3.4,2.5c1.9,0 3.5,-1.6 3.5,-3.5s-1.7,-3.5 -3.6,-3.5zm0,5c-0.8,0 -1.5,-0.7 -1.5,-1.5s0.7,-1.5 1.5,-1.5c0.8,0 1.5,0.7 1.5,1.5s-0.7,1.5 -1.5,1.5z"
                  style="stroke: rgb(52, 152, 219); fill: rgb(255, 255, 255);"/>
            <path id="svg_5"
                  d="m38.692308,29.1c1.9,0 3.5,-1.6 3.5,-3.5s-1.5,-3.5 -3.5,-3.5c-1.6,0 -2.9,1.1 -3.4,2.5l-6.1,0l0,2l6.1,0c0.5,1.5 1.9,2.5 3.4,2.5zm0,-5c0.8,0 1.5,0.7 1.5,1.5c0,0.8 -0.7,1.5 -1.5,1.5c-0.8,0 -1.5,-0.7 -1.5,-1.5c0,-0.8 0.7,-1.5 1.5,-1.5z"
                  style="stroke: rgb(52, 152, 219); fill: rgb(255, 255, 255);"/>
            <path id="svg_6"
                  d="m45.492308,26.3c-1.9,0 -3.5,1.6 -3.5,3.5c0,0.5 0.1,0.9 0.2,1.3l-4.2,2.8l-8.8,0l0,2l9.5,0l4.8,-3.2c0.6,0.4 1.3,0.7 2,0.7c1.9,0 3.5,-1.6 3.5,-3.5s-1.6,-3.6 -3.5,-3.6zm0,5c-0.8,0 -1.5,-0.7 -1.5,-1.5c0,-0.8 0.7,-1.5 1.5,-1.5c0.8,0 1.5,0.7 1.5,1.5c0,0.8 -0.7,1.5 -1.5,1.5z"
                  style="stroke: rgb(52, 152, 219); fill: rgb(255, 255, 255);"/>
            <path id="svg_7"
                  d="m5.592308,33c-0.4,2.9 1.1,6.4 4.2,8.3c0.5,4.3 4.3,7.7 8.7,7.7c4.8,0 8.8,-4 8.8,-8.8l0,-30.4c0,-4.8 -4,-8.8 -8.8,-8.8c-4.4,0 -8.1,3.3 -8.7,7.7c-3,1.9 -4.5,5.3 -4.2,8.3c-7,3.1 -6.9,13 0,16z"
                  style="stroke: rgb(52, 152, 219); fill: rgb(255, 255, 255);"/>
        </g>
    </g>
</svg>
